<svg width="18" height="17" viewBox="0 0 18 17" fill="none" xmlns="http://www.w3.org/2000/svg">
<path opacity="0.6" fill-rule="evenodd" clip-rule="evenodd" d="M2.18381 0C0.863556 0 0 0.855911 0 1.98146C0 3.08249 0.838572 3.96437 2.13259 3.96437H2.15837C3.50419 3.96437 4.34117 3.08265 4.34117 1.98146C4.31581 0.855911 3.50419 0 2.18381 0ZM18 10.4227V17H14.142V10.8632C14.142 9.32158 13.584 8.26949 12.1875 8.26949C11.1215 8.26949 10.4871 8.97852 10.208 9.66439C10.1063 9.90959 10.0801 10.2509 10.0801 10.5941V17H6.22078C6.22078 17 6.27276 6.60627 6.22078 5.5294H10.0797V7.15531C10.076 7.16105 10.0718 7.16701 10.0676 7.17293L10.0676 7.17295C10.0629 7.17957 10.0582 7.18615 10.0543 7.19237H10.0797V7.15531C10.5924 6.37485 11.508 5.25992 13.5574 5.25992C16.0965 5.25988 18 6.89936 18 10.4227ZM4.08702 17H0.229207V5.5294H4.08702V17Z" fill="#2B292D"/>
</svg>
