<svg width="21" height="16" viewBox="0 0 21 16" fill="none" xmlns="http://www.w3.org/2000/svg">
<path opacity="0.6" fill-rule="evenodd" clip-rule="evenodd" d="M21 1.90668C20.2281 2.22828 19.395 2.44652 18.5251 2.53841C19.4195 2.03302 20.0933 1.25197 20.4242 0.298636C19.591 0.758076 18.6721 1.10266 17.6919 1.27495C16.9078 0.493898 15.7806 0 14.5432 0C12.1663 0 10.2305 1.81479 10.2305 4.04307C10.2305 4.36468 10.2672 4.66332 10.3407 4.96195C6.76313 4.78966 3.5776 3.18162 1.45799 0.735104C1.09043 1.33238 0.869895 2.02154 0.869895 2.76813C0.869895 4.16942 1.62952 5.40991 2.79347 6.13352C2.08285 6.11055 1.42124 5.92678 0.845391 5.62814C0.845391 5.63963 0.845391 5.6626 0.845391 5.67408C0.845391 7.62671 2.32789 9.2692 4.30047 9.63675C3.93291 9.72864 3.55309 9.77459 3.16103 9.77459C2.87923 9.77459 2.60968 9.75162 2.35239 9.70567C2.90373 11.3137 4.4965 12.4853 6.38331 12.5083C4.91307 13.5879 3.05076 14.2426 1.02917 14.2426C0.686114 14.2426 0.343057 14.2197 0 14.1852C1.91132 15.3338 4.17795 16 6.60385 16C14.5309 16 18.8681 9.8435 18.8681 4.50251C18.8681 4.33022 18.8681 4.15793 18.8559 3.97416C19.689 3.43431 20.4242 2.72218 21 1.90668Z" fill="#2B292D"/>
</svg>
